<svg id="my-svg" width="100%" xmlns="http://www.w3.org/2000/svg" xmlns:xlink="http://www.w3.org/1999/xlink" class="flowchart" style="max-width: 2216.55px; background-color: white;" viewBox="-87.4453125 0 2216.5546875 1901.8560791015625" role="graphics-document document" aria-roledescription="flowchart-v2"><style>#my-svg{font-family:"trebuchet ms",verdana,arial,sans-serif;font-size:16px;fill:#334155;}@keyframes edge-animation-frame{from{stroke-dashoffset:0;}}@keyframes dash{to{stroke-dashoffset:0;}}#my-svg .edge-animation-slow{stroke-dasharray:9,5!important;stroke-dashoffset:900;animation:dash 50s linear infinite;stroke-linecap:round;}#my-svg .edge-animation-fast{stroke-dasharray:9,5!important;stroke-dashoffset:900;animation:dash 20s linear infinite;stroke-linecap:round;}#my-svg .error-icon{fill:#f59e0b;}#my-svg .error-text{fill:#0a61f4;stroke:#0a61f4;}#my-svg .edge-thickness-normal{stroke-width:1px;}#my-svg .edge-thickness-thick{stroke-width:3.5px;}#my-svg .edge-pattern-solid{stroke-dasharray:0;}#my-svg .edge-thickness-invisible{stroke-width:0;fill:none;}#my-svg .edge-pattern-dashed{stroke-dasharray:3;}#my-svg .edge-pattern-dotted{stroke-dasharray:2;}#my-svg .marker{fill:#94a3b8;stroke:#94a3b8;}#my-svg .marker.cross{stroke:#94a3b8;}#my-svg svg{font-family:"trebuchet ms",verdana,arial,sans-serif;font-size:16px;}#my-svg p{margin:0;}#my-svg .label{font-family:"trebuchet ms",verdana,arial,sans-serif;color:#ffffff;}#my-svg .cluster-label text{fill:#1e293b;}#my-svg .cluster-label span{color:#1e293b;}#my-svg .cluster-label span p{background-color:transparent;}#my-svg .label text,#my-svg span{fill:#ffffff;color:#ffffff;}#my-svg .node rect,#my-svg .node circle,#my-svg .node ellipse,#my-svg .node polygon,#my-svg .node path{fill:#f8fafc;stroke:#cbd5e1;stroke-width:1px;}#my-svg .rough-node .label text,#my-svg .node .label text,#my-svg .image-shape .label,#my-svg .icon-shape .label{text-anchor:middle;}#my-svg .node .katex path{fill:#000;stroke:#000;stroke-width:1px;}#my-svg .rough-node .label,#my-svg .node .label,#my-svg .image-shape .label,#my-svg .icon-shape .label{text-align:center;}#my-svg .node.clickable{cursor:pointer;}#my-svg .root .anchor path{fill:#94a3b8!important;stroke-width:0;stroke:#94a3b8;}#my-svg .arrowheadPath{fill:#000000;}#my-svg .edgePath .path{stroke:#94a3b8;stroke-width:1px;}#my-svg .flowchart-link{stroke:#94a3b8;fill:none;}#my-svg .edgeLabel{background-color:#ffffff;text-align:center;}#my-svg .edgeLabel p{background-color:#ffffff;}#my-svg .edgeLabel rect{opacity:0.5;background-color:#ffffff;fill:#ffffff;}#my-svg .labelBkg{background-color:rgba(255, 255, 255, 0.5);}#my-svg .cluster rect{fill:#f1f5f9;stroke:#e2e8f0;stroke-width:1px;}#my-svg .cluster text{fill:#1e293b;}#my-svg .cluster span{color:#1e293b;}#my-svg div.mermaidTooltip{position:absolute;text-align:center;max-width:200px;padding:2px;font-family:"trebuchet ms",verdana,arial,sans-serif;font-size:12px;background:#f59e0b;border:1px solid hsl(37.6923076923, 52.125984252%, 40.1960784314%);border-radius:2px;pointer-events:none;z-index:100;}#my-svg .flowchartTitleText{text-anchor:middle;font-size:18px;fill:#334155;}#my-svg rect.text{fill:none;stroke-width:0;}#my-svg .icon-shape,#my-svg .image-shape{background-color:#ffffff;text-align:center;}#my-svg .icon-shape p,#my-svg .image-shape p{background-color:#ffffff;padding:2px;}#my-svg .icon-shape .label rect,#my-svg .image-shape .label rect{opacity:0.5;background-color:#ffffff;fill:#ffffff;}#my-svg .label-icon{display:inline-block;height:1em;overflow:visible;vertical-align:-0.125em;}#my-svg .node .label-icon path{fill:currentColor;stroke:revert;stroke-width:revert;}#my-svg .node .neo-node{stroke:#cbd5e1;}#my-svg [data-look="neo"].node rect,#my-svg [data-look="neo"].cluster rect,#my-svg [data-look="neo"].node polygon{stroke:url(#my-svg-gradient);filter:drop-shadow( 1px 2px 2px rgba(185,185,185,1));}#my-svg [data-look="neo"].swimlane.cluster rect{filter:none;}#my-svg [data-look="neo"].node path{stroke:url(#my-svg-gradient);stroke-width:1px;}#my-svg [data-look="neo"].node .outer-path{filter:drop-shadow( 1px 2px 2px rgba(185,185,185,1));}#my-svg [data-look="neo"].node .neo-line path{stroke:#cbd5e1;filter:none;}#my-svg [data-look="neo"].node circle{stroke:url(#my-svg-gradient);filter:drop-shadow( 1px 2px 2px rgba(185,185,185,1));}#my-svg [data-look="neo"].node circle .state-start{fill:#000000;}#my-svg [data-look="neo"].icon-shape .icon{fill:url(#my-svg-gradient);filter:drop-shadow( 1px 2px 2px rgba(185,185,185,1));}#my-svg [data-look="neo"].icon-shape .icon-neo path{stroke:url(#my-svg-gradient);filter:drop-shadow( 1px 2px 2px rgba(185,185,185,1));}#my-svg :root{--mermaid-font-family:"trebuchet ms",verdana,arial,sans-serif;}</style><g><marker id="my-svg_flowchart-v2-pointEnd" class="marker flowchart-v2" viewBox="0 0 10 10" refX="5" refY="5" markerUnits="userSpaceOnUse" markerWidth="8" markerHeight="8" orient="auto"><path d="M 0 0 L 10 5 L 0 10 z" class="arrowMarkerPath" style="stroke-width: 1; stroke-dasharray: 1, 0;"/></marker><marker id="my-svg_flowchart-v2-pointStart" class="marker flowchart-v2" viewBox="0 0 10 10" refX="4.5" refY="5" markerUnits="userSpaceOnUse" markerWidth="8" markerHeight="8" orient="auto"><path d="M 0 5 L 10 10 L 10 0 z" class="arrowMarkerPath" style="stroke-width: 1; stroke-dasharray: 1, 0;"/></marker><marker id="my-svg_flowchart-v2-pointEnd-margin" class="marker flowchart-v2" viewBox="0 0 11.5 14" refX="11.5" refY="7" markerUnits="userSpaceOnUse" markerWidth="10.5" markerHeight="14" orient="auto"><path d="M 0 0 L 11.5 7 L 0 14 z" class="arrowMarkerPath" style="stroke-width: 0; stroke-dasharray: 1, 0;"/></marker><marker id="my-svg_flowchart-v2-pointStart-margin" class="marker flowchart-v2" viewBox="0 0 11.5 14" refX="1" refY="7" markerUnits="userSpaceOnUse" markerWidth="11.5" markerHeight="14" orient="auto"><polygon points="0,7 11.5,14 11.5,0" class="arrowMarkerPath" style="stroke-width: 0; stroke-dasharray: 1, 0;"/></marker><marker id="my-svg_flowchart-v2-circleEnd" class="marker flowchart-v2" viewBox="0 0 10 10" refX="11" refY="5" markerUnits="userSpaceOnUse" markerWidth="11" markerHeight="11" orient="auto"><circle cx="5" cy="5" r="5" class="arrowMarkerPath" style="stroke-width: 1; stroke-dasharray: 1, 0;"/></marker><marker id="my-svg_flowchart-v2-circleStart" class="marker flowchart-v2" viewBox="0 0 10 10" refX="-1" refY="5" markerUnits="userSpaceOnUse" markerWidth="11" markerHeight="11" orient="auto"><circle cx="5" cy="5" r="5" class="arrowMarkerPath" style="stroke-width: 1; stroke-dasharray: 1, 0;"/></marker><marker id="my-svg_flowchart-v2-circleEnd-margin" class="marker flowchart-v2" viewBox="0 0 10 10" refY="5" refX="12.25" markerUnits="userSpaceOnUse" markerWidth="14" markerHeight="14" orient="auto"><circle cx="5" cy="5" r="5" class="arrowMarkerPath" style="stroke-width: 0; stroke-dasharray: 1, 0;"/></marker><marker id="my-svg_flowchart-v2-circleStart-margin" class="marker flowchart-v2" viewBox="0 0 10 10" refX="-2" refY="5" markerUnits="userSpaceOnUse" markerWidth="14" markerHeight="14" orient="auto"><circle cx="5" cy="5" r="5" class="arrowMarkerPath" style="stroke-width: 0; stroke-dasharray: 1, 0;"/></marker><marker id="my-svg_flowchart-v2-crossEnd" class="marker cross flowchart-v2" viewBox="0 0 11 11" refX="12" refY="5.2" markerUnits="userSpaceOnUse" markerWidth="11" markerHeight="11" orient="auto"><path d="M 1,1 l 9,9 M 10,1 l -9,9" class="arrowMarkerPath" style="stroke-width: 2; stroke-dasharray: 1, 0;"/></marker><marker id="my-svg_flowchart-v2-crossStart" class="marker cross flowchart-v2" viewBox="0 0 11 11" refX="-1" refY="5.2" markerUnits="userSpaceOnUse" markerWidth="11" markerHeight="11" orient="auto"><path d="M 1,1 l 9,9 M 10,1 l -9,9" class="arrowMarkerPath" style="stroke-width: 2; stroke-dasharray: 1, 0;"/></marker><marker id="my-svg_flowchart-v2-crossEnd-margin" class="marker cross flowchart-v2" viewBox="0 0 15 15" refX="17.7" refY="7.5" markerUnits="userSpaceOnUse" markerWidth="12" markerHeight="12" orient="auto"><path d="M 1,1 L 14,14 M 1,14 L 14,1" class="arrowMarkerPath" style="stroke-width: 2.5;"/></marker><marker id="my-svg_flowchart-v2-crossStart-margin" class="marker cross flowchart-v2" viewBox="0 0 15 15" refX="-3.5" refY="7.5" markerUnits="userSpaceOnUse" markerWidth="12" markerHeight="12" orient="auto"><path d="M 1,1 L 14,14 M 1,14 L 14,1" class="arrowMarkerPath" style="stroke-width: 2.5; stroke-dasharray: 1, 0;"/></marker><g class="root"><g class="clusters"><g class="cluster" id="my-svg-API" data-look="classic"><rect style="" x="1811.109375" y="46.26884460449219" width="310" height="1847.5873069763184"/><g class="cluster-label" transform="translate(1868.296875, 46.26884460449219)"><foreignObject width="195.625" height="24"><div xmlns="http://www.w3.org/1999/xhtml" style="display: table-cell; white-space: nowrap; line-height: 1.5;"><span class="nodeLabel"><p>FastAPI /alerts (new router)</p></span></div></foreignObject></g></g><g class="cluster" id="my-svg-CFG" data-look="classic"><rect style="" x="8" y="1348.3230667114258" width="265" height="485.6397018432617"/><g class="cluster-label" transform="translate(94.25, 1348.3230667114258)"><foreignObject width="92.5" height="24"><div xmlns="http://www.w3.org/1999/xhtml" style="display: table-cell; white-space: nowrap; line-height: 1.5;"><span class="nodeLabel"><p>Admin config</p></span></div></foreignObject></g></g><g class="cluster" id="my-svg-ST" data-look="classic"><rect style="" x="1511.1640625" y="8" width="256.6875" height="513.1365203857422"/><g class="cluster-label" transform="translate(1515.1640625, 8)"><foreignObject width="248.6875" height="24"><div xmlns="http://www.w3.org/1999/xhtml" style="display: table-cell; white-space: nowrap; line-height: 1.5;"><span class="nodeLabel"><p>Stateful lifecycle tables (D-ALRT-2)</p></span></div></foreignObject></g></g><g class="cluster" id="my-svg-WK" data-look="classic"><rect style="" x="323" y="541.1365203857422" width="1438.109375" height="1014.1865463256836"/><g class="cluster-label" transform="translate(851.453125, 541.1365203857422)"><foreignObject width="381.203125" height="24"><div xmlns="http://www.w3.org/1999/xhtml" style="display: table-cell; white-space: nowrap; line-height: 1.5;"><span class="nodeLabel"><p>Python worker — new AlertEvaluator lane (D-ALRT-1)</p></span></div></foreignObject></g></g><g class="cluster" id="my-svg-SRC" data-look="classic"><rect style="" x="-79.4453125" y="466.92327880859375" width="439.890625" height="861.399787902832"/><g class="cluster-label" transform="translate(-75.4453125, 466.92327880859375)"><foreignObject width="431.890625" height="24"><div xmlns="http://www.w3.org/1999/xhtml" style="display: table-cell; white-space: nowrap; line-height: 1.5;"><span class="nodeLabel"><p>Persisted sources (existing, read-only — no new DP surface)</p></span></div></foreignObject></g></g></g><g class="edgePaths"><path d="M248,581.137L252.167,581.137C256.333,581.137,264.667,581.137,273,581.137C281.333,581.137,289.667,581.137,298,581.137C306.333,581.137,314.667,581.137,341.42,630.569C368.173,680.002,413.345,778.867,435.932,828.3L458.518,877.732" id="my-svg-L_NH_SRCR_0" class="edge-thickness-normal edge-pattern-solid edge-thickness-normal edge-pattern-solid flowchart-link" style=";" data-edge="true" data-et="edge" data-id="L_NH_SRCR_0" data-points="W3sieCI6MjQ4LCJ5Ijo1ODEuMTM2NTIwMzg1NzQyMn0seyJ4IjoyNzMsInkiOjU4MS4xMzY1MjAzODU3NDIyfSx7IngiOjI5OCwieSI6NTgxLjEzNjUyMDM4NTc0MjJ9LHsieCI6MzIzLCJ5Ijo1ODEuMTM2NTIwMzg1NzQyMn0seyJ4Ijo0NjAuMTgwNDM0ODY2NDgyLCJ5Ijo4ODEuMzcwMzg4MDMxMDA1OX1d" data-look="classic" marker-end="url(#my-svg_flowchart-v2-pointEnd)"/><path d="M232.93,764.222L239.608,764.222C246.286,764.222,259.643,764.222,270.488,764.222C281.333,764.222,289.667,764.222,298,764.222C306.333,764.222,314.667,764.222,337.745,783.274C360.823,802.325,398.646,840.428,417.557,859.48L436.469,878.532" id="my-svg-L_TC_SRCR_0" class="edge-thickness-normal edge-pattern-solid edge-thickness-normal edge-pattern-solid flowchart-link" style=";" data-edge="true" data-et="edge" data-id="L_TC_SRCR_0" data-points="W3sieCI6MjMyLjkyOTY4NzUsInkiOjc2NC4yMjE5MzE0NTc1MTk1fSx7IngiOjI3MywieSI6NzY0LjIyMTkzMTQ1NzUxOTV9LHsieCI6Mjk4LCJ5Ijo3NjQuMjIxOTMxNDU3NTE5NX0seyJ4IjozMjMsInkiOjc2NC4yMjE5MzE0NTc1MTk1fSx7IngiOjQzOS4yODY4NDExNzI0ODk1LCJ5Ijo4ODEuMzcwMzg4MDMxMDA1OX1d" data-look="classic" marker-end="url(#my-svg_flowchart-v2-pointEnd)"/><path d="M236.961,922.35L242.967,922.35C248.974,922.35,260.987,922.35,271.16,922.35C281.333,922.35,289.667,922.35,298,922.35C306.333,922.35,314.667,922.35,325.214,922.268C335.761,922.187,348.521,922.024,354.901,921.942L361.282,921.861" id="my-svg-L_AJ_SRCR_0" class="edge-thickness-normal edge-pattern-solid edge-thickness-normal edge-pattern-solid flowchart-link" style=";" data-edge="true" data-et="edge" data-id="L_AJ_SRCR_0" data-points="W3sieCI6MjM2Ljk2MDkzNzUsInkiOjkyMi4zNDk5MTA3MzYwODR9LHsieCI6MjczLCJ5Ijo5MjIuMzQ5OTEwNzM2MDg0fSx7IngiOjI5OCwieSI6OTIyLjM0OTkxMDczNjA4NH0seyJ4IjozMjMsInkiOjkyMi4zNDk5MTA3MzYwODR9LHsieCI6MzY1LjI4MTI1LCJ5Ijo5MjEuODA5OTMyMDYyNzAyOH1d" data-look="classic" marker-end="url(#my-svg_flowchart-v2-pointEnd)"/><path d="M248,1081.819L252.167,1081.819C256.333,1081.819,264.667,1081.819,273,1081.819C281.333,1081.819,289.667,1081.819,298,1081.819C306.333,1081.819,314.667,1081.819,337.965,1061.892C361.263,1041.965,399.525,1002.11,418.656,982.183L437.788,962.256" id="my-svg-L_FR_SRCR_0" class="edge-thickness-normal edge-pattern-solid edge-thickness-normal edge-pattern-solid flowchart-link" style=";" data-edge="true" data-et="edge" data-id="L_FR_SRCR_0" data-points="W3sieCI6MjQ4LCJ5IjoxMDgxLjgxODk1ODI4MjQ3MDd9LHsieCI6MjczLCJ5IjoxMDgxLjgxODk1ODI4MjQ3MDd9LHsieCI6Mjk4LCJ5IjoxMDgxLjgxODk1ODI4MjQ3MDd9LHsieCI6MzIzLCJ5IjoxMDgxLjgxODk1ODI4MjQ3MDd9LHsieCI6NDQwLjU1NzczNTkzNjY4NTA1LCJ5Ijo5NTkuMzcwMzg4MDMxMDA1OX1d" data-look="classic" marker-end="url(#my-svg_flowchart-v2-pointEnd)"/><path d="M225.828,1240.178L233.69,1240.178C241.552,1240.178,257.276,1240.178,269.305,1240.178C281.333,1240.178,289.667,1240.178,298,1240.178C306.333,1240.178,314.667,1240.178,341.226,1193.976C367.784,1147.775,412.569,1055.372,434.961,1009.171L457.353,962.97" id="my-svg-L_NC_SRCR_0" class="edge-thickness-normal edge-pattern-solid edge-thickness-normal edge-pattern-solid flowchart-link" style=";" data-edge="true" data-et="edge" data-id="L_NC_SRCR_0" data-points="W3sieCI6MjI1LjgyODEyNSwieSI6MTI0MC4xNzc2MzEzNzgxNzM4fSx7IngiOjI3MywieSI6MTI0MC4xNzc2MzEzNzgxNzM4fSx7IngiOjI5OCwieSI6MTI0MC4xNzc2MzEzNzgxNzM4fSx7IngiOjMyMywieSI6MTI0MC4xNzc2MzEzNzgxNzM4fSx7IngiOjQ1OS4wOTc5ODkwOTg4OTY2LCJ5Ijo5NTkuMzcwMzg4MDMxMDA1OX1d" data-look="classic" marker-end="url(#my-svg_flowchart-v2-pointEnd)"/><path d="M590.719,920.37L597.766,920.37C604.813,920.37,618.906,920.37,642.408,939.855C665.909,959.34,698.818,998.31,715.272,1017.795L731.726,1037.28" id="my-svg-L_SRCR_EVAL_0" class="edge-thickness-normal edge-pattern-solid edge-thickness-normal edge-pattern-solid flowchart-link" style=";" data-edge="true" data-et="edge" data-id="L_SRCR_EVAL_0" data-points="W3sieCI6NTkwLjcxODc1LCJ5Ijo5MjAuMzcwMzg4MDMxMDA1OX0seyJ4Ijo2MzMsInkiOjkyMC4zNzAzODgwMzEwMDU5fSx7IngiOjczNC4zMDcyNTE2NTU5NDMxLCJ5IjoxMDQwLjMzNjQ4ODcyMzc1NDl9XQ==" data-look="classic" marker-end="url(#my-svg_flowchart-v2-pointEnd)"/><path d="M608,1416.323L612.167,1416.323C616.333,1416.323,624.667,1416.323,648.849,1371.268C673.031,1326.213,713.063,1236.102,733.079,1191.047L753.094,1145.992" id="my-svg-L_RULES_EVAL_0" class="edge-thickness-normal edge-pattern-solid edge-thickness-normal edge-pattern-solid flowchart-link" style=";" data-edge="true" data-et="edge" data-id="L_RULES_EVAL_0" data-points="W3sieCI6NjA4LCJ5IjoxNDE2LjMyMzA2NjcxMTQyNTh9LHsieCI6NjMzLCJ5IjoxNDE2LjMyMzA2NjcxMTQyNTh9LHsieCI6NzU0LjcxODI5NTA4MTMxNDYsInkiOjExNDIuMzM2NDg4NzIzNzU0OX1d" data-look="classic" marker-end="url(#my-svg_flowchart-v2-pointEnd)"/><path d="M171.91,1633.333L188.758,1597.165C205.607,1560.996,239.303,1488.66,260.318,1452.491C281.333,1416.323,289.667,1416.323,298,1416.323C306.333,1416.323,314.667,1416.323,322.333,1416.323C330,1416.323,337,1416.323,340.5,1416.323L344,1416.323" id="my-svg-L_RC_RULES_0" class="edge-thickness-normal edge-pattern-solid edge-thickness-normal edge-pattern-solid flowchart-link" style=";" data-edge="true" data-et="edge" data-id="L_RC_RULES_0" data-points="W3sieCI6MTcxLjkwOTkyNzAwMDg2NDg1LCJ5IjoxNjMzLjMzMjc4NzczNTcwNjV9LHsieCI6MjczLCJ5IjoxNDE2LjMyMzA2NjcxMTQyNTh9LHsieCI6Mjk4LCJ5IjoxNDE2LjMyMzA2NjcxMTQyNTh9LHsieCI6MzIzLCJ5IjoxNDE2LjMyMzA2NjcxMTQyNTh9LHsieCI6MzQ4LCJ5IjoxNDE2LjMyMzA2NjcxMTQyNTh9XQ==" data-look="classic" marker-end="url(#my-svg_flowchart-v2-pointEnd)"/><path d="M800.957,1036.664L834.279,959.409C867.602,882.155,934.246,727.646,1005.641,650.391C1077.036,573.137,1153.182,573.137,1225.661,573.137C1298.141,573.137,1366.953,573.137,1415.049,573.137C1463.146,573.137,1490.526,573.137,1521.419,507.474C1552.311,441.811,1586.717,310.485,1603.919,244.822L1621.122,179.16" id="my-svg-L_EVAL_AL_0" class="edge-thickness-normal edge-pattern-solid edge-thickness-normal edge-pattern-solid flowchart-link" style=";" data-edge="true" data-et="edge" data-id="L_EVAL_AL_0" data-points="W3sieCI6Nzk5LjM3Mjg3MjU4MTA0MjgsInkiOjEwNDAuMzM2NDg4NzIzNzU0OX0seyJ4IjoxMDAwLjg5MDYyNSwieSI6NTczLjEzNjUyMDM4NTc0MjJ9LHsieCI6MTIyOS4zMjgxMjUsInkiOjU3My4xMzY1MjAzODU3NDIyfSx7IngiOjE0MzUuNzY1NjI1LCJ5Ijo1NzMuMTM2NTIwMzg1NzQyMn0seyJ4IjoxNTE3LjkwNjI1LCJ5Ijo1NzMuMTM2NTIwMzg1NzQyMn0seyJ4IjoxNjIyLjEzNTYyNzU2NTEzOTIsInkiOjE3NS4yOTAyMjM1NDY5NTQyMn1d" data-look="classic" marker-start="url(#my-svg_flowchart-v2-pointStart)" marker-end="url(#my-svg_flowchart-v2-pointEnd)"/><path d="M818.53,1142.336L848.923,1180.001C879.317,1217.665,940.104,1292.994,987.199,1333.802C1034.294,1374.611,1067.697,1380.898,1084.399,1384.042L1101.1,1387.186" id="my-svg-L_EVAL_DISP_0" class="edge-thickness-normal edge-pattern-solid edge-thickness-normal edge-pattern-solid flowchart-link" style=";" data-edge="true" data-et="edge" data-id="L_EVAL_DISP_0" data-points="W3sieCI6ODE4LjUyOTY5MDQ0Njc5NjMsInkiOjExNDIuMzM2NDg4NzIzNzU0OX0seyJ4IjoxMDAwLjg5MDYyNSwieSI6MTM2OC4zMjMwNjY3MTE0MjU4fSx7IngiOjExMDUuMDMxMjUsInkiOjEzODcuOTI2MDA3ODg3ODk2M31d" data-look="classic" marker-end="url(#my-svg_flowchart-v2-pointEnd)"/><path d="M857.31,1040.336L881.24,1025.069C905.17,1009.801,953.03,979.265,1015.033,963.998C1077.036,948.73,1153.182,948.73,1225.661,948.73C1298.141,948.73,1366.953,948.73,1415.049,948.73C1463.146,948.73,1490.526,948.73,1522.227,872.255C1553.929,795.781,1589.951,642.832,1607.962,566.357L1625.973,489.882" id="my-svg-L_EVAL_AU_0" class="edge-thickness-normal edge-pattern-solid edge-thickness-normal edge-pattern-solid flowchart-link" style=";" data-edge="true" data-et="edge" data-id="L_EVAL_AU_0" data-points="W3sieCI6ODU3LjMxMDIxNTI1MDU3MiwieSI6MTA0MC4zMzY0ODg3MjM3NTQ5fSx7IngiOjEwMDAuODkwNjI1LCJ5Ijo5NDguNzI5NzkzNTQ4NTg0fSx7IngiOjEyMjkuMzI4MTI1LCJ5Ijo5NDguNzI5NzkzNTQ4NTg0fSx7IngiOjE0MzUuNzY1NjI1LCJ5Ijo5NDguNzI5NzkzNTQ4NTg0fSx7IngiOjE1MTcuOTA2MjUsInkiOjk0OC43Mjk3OTM1NDg1ODR9LHsieCI6MTYyNi44OTA0MjAwOTk3Mzg4LCJ5Ijo0ODUuOTg4OTkyNzE2NTY4NzZ9XQ==" data-look="classic" marker-end="url(#my-svg_flowchart-v2-pointEnd)"/><path d="M248,1504.796L252.167,1504.384C256.333,1503.972,264.667,1503.147,273,1502.735C281.333,1502.323,289.667,1502.323,298,1502.323C306.333,1502.323,314.667,1502.323,344.667,1502.323C374.667,1502.323,426.333,1502.323,478,1502.323C529.667,1502.323,581.333,1502.323,631.229,1502.323C681.125,1502.323,729.25,1502.323,790.565,1502.323C851.88,1502.323,926.385,1502.323,980.375,1495.656C1034.365,1488.988,1067.84,1475.653,1084.578,1468.986L1101.315,1462.318" id="my-svg-L_CH_DISP_0" class="edge-thickness-normal edge-pattern-solid edge-thickness-normal edge-pattern-solid flowchart-link" style=";" data-edge="true" data-et="edge" data-id="L_CH_DISP_0" data-points="W3sieCI6MjQ4LCJ5IjoxNTA0Ljc5NjAxMzMxMDI3MDR9LHsieCI6MjczLCJ5IjoxNTAyLjMyMzA2NjcxMTQyNTh9LHsieCI6Mjk4LCJ5IjoxNTAyLjMyMzA2NjcxMTQyNTh9LHsieCI6MzIzLCJ5IjoxNTAyLjMyMzA2NjcxMTQyNTh9LHsieCI6NDc4LCJ5IjoxNTAyLjMyMzA2NjcxMTQyNTh9LHsieCI6NjMzLCJ5IjoxNTAyLjMyMzA2NjcxMTQyNTh9LHsieCI6Nzc3LjM3NSwieSI6MTUwMi4zMjMwNjY3MTE0MjU4fSx7IngiOjEwMDAuODkwNjI1LCJ5IjoxNTAyLjMyMzA2NjcxMTQyNTh9LHsieCI6MTEwNS4wMzEyNSwieSI6MTQ2MC44Mzc3NzI1OTM3Nzg3fV0=" data-look="classic" marker-end="url(#my-svg_flowchart-v2-pointEnd)"/><path d="M1353.625,1376.401L1367.315,1372.555C1381.005,1368.708,1408.385,1361.016,1435.766,1357.169C1463.146,1353.323,1490.526,1353.323,1507.848,1353.323C1525.169,1353.323,1532.432,1353.323,1536.064,1353.323L1539.695,1353.323" id="my-svg-L_DISP_EM_0" class="edge-thickness-normal edge-pattern-solid edge-thickness-normal edge-pattern-solid flowchart-link" style=";" data-edge="true" data-et="edge" data-id="L_DISP_EM_0" data-points="W3sieCI6MTM1My42MjUsInkiOjEzNzYuNDAxMDI2MTQyMjQ2M30seyJ4IjoxNDM1Ljc2NTYyNSwieSI6MTM1My4zMjMwNjY3MTE0MjU4fSx7IngiOjE1MTcuOTA2MjUsInkiOjEzNTMuMzIzMDY2NzExNDI1OH0seyJ4IjoxNTQzLjY5NTMxMjUsInkiOjEzNTMuMzIzMDY2NzExNDI1OH1d" data-look="classic" marker-end="url(#my-svg_flowchart-v2-pointEnd)"/><path d="M1353.625,1453.47L1367.315,1458.112C1381.005,1462.755,1408.385,1472.039,1435.766,1476.681C1463.146,1481.323,1490.526,1481.323,1508.241,1481.323C1525.956,1481.323,1534.005,1481.323,1538.03,1481.323L1542.055,1481.323" id="my-svg-L_DISP_WH_0" class="edge-thickness-normal edge-pattern-solid edge-thickness-normal edge-pattern-solid flowchart-link" style=";" data-edge="true" data-et="edge" data-id="L_DISP_WH_0" data-points="W3sieCI6MTM1My42MjUsInkiOjE0NTMuNDcwMzU3MDUzNTM5fSx7IngiOjE0MzUuNzY1NjI1LCJ5IjoxNDgxLjMyMzA2NjcxMTQyNTh9LHsieCI6MTUxNy45MDYyNSwieSI6MTQ4MS4zMjMwNjY3MTE0MjU4fSx7IngiOjE1NDYuMDU0Njg3NSwieSI6MTQ4MS4zMjMwNjY3MTE0MjU4fV0=" data-look="classic" marker-end="url(#my-svg_flowchart-v2-pointEnd)"/><path d="M1242.388,1360.323L1274.617,1234.459C1306.847,1108.594,1371.306,856.865,1417.226,731.001C1463.146,605.137,1490.526,605.137,1521.053,559.665C1551.58,514.193,1585.253,423.249,1602.09,377.778L1618.927,332.306" id="my-svg-L_DISP_AN_0" class="edge-thickness-normal edge-pattern-solid edge-thickness-normal edge-pattern-solid flowchart-link" style=";" data-edge="true" data-et="edge" data-id="L_DISP_AN_0" data-points="W3sieCI6MTI0Mi4zODc1MjQ4OTY5NCwieSI6MTM2MC4zMjMwNjY3MTE0MjU4fSx7IngiOjE0MzUuNzY1NjI1LCJ5Ijo2MDUuMTM2NTIwMzg1NzQyMn0seyJ4IjoxNTE3LjkwNjI1LCJ5Ijo2MDUuMTM2NTIwMzg1NzQyMn0seyJ4IjoxNjIwLjMxNjA0MjA2NzEzOTcsInkiOjMyOC41NTQ2Mzc5MjQ3Mjk2fV0=" data-look="classic" marker-end="url(#my-svg_flowchart-v2-pointEnd)"/><path d="M1736.109,109.269L1740.276,109.269C1744.443,109.269,1752.776,109.269,1761.109,109.269C1769.443,109.269,1777.776,109.269,1786.109,109.269C1794.443,109.269,1802.776,109.269,1816.507,114.452C1830.237,119.636,1849.365,130.002,1858.929,135.186L1868.493,140.369" id="my-svg-L_AL_GA_0" class="edge-thickness-normal edge-pattern-solid edge-thickness-normal edge-pattern-solid flowchart-link" style=";" data-edge="true" data-et="edge" data-id="L_AL_GA_0" data-points="W3sieCI6MTczNi4xMDkzNzUsInkiOjEwOS4yNjg4NDQ2MDQ0OTIxOX0seyJ4IjoxNzYxLjEwOTM3NSwieSI6MTA5LjI2ODg0NDYwNDQ5MjE5fSx7IngiOjE3ODYuMTA5Mzc1LCJ5IjoxMDkuMjY4ODQ0NjA0NDkyMTl9LHsieCI6MTgxMS4xMDkzNzUsInkiOjEwOS4yNjg4NDQ2MDQ0OTIxOX0seyJ4IjoxODcyLjAwOTI4MTA3MjM4NjYsInkiOjE0Mi4yNzUxMzY5NDc2MzE4NH1d" data-look="classic" marker-end="url(#my-svg_flowchart-v2-pointEnd)"/><path d="M1712.828,277.281L1720.875,277.281C1728.922,277.281,1745.016,277.281,1757.229,277.281C1769.443,277.281,1777.776,277.281,1786.109,277.281C1794.443,277.281,1802.776,277.281,1816.507,272.098C1830.237,266.915,1849.365,256.548,1858.929,251.364L1868.493,246.181" id="my-svg-L_AN_GA_0" class="edge-thickness-normal edge-pattern-solid edge-thickness-normal edge-pattern-solid flowchart-link" style=";" data-edge="true" data-et="edge" data-id="L_AN_GA_0" data-points="W3sieCI6MTcxMi44MjgxMjUsInkiOjI3Ny4yODE0MjkyOTA3NzE1fSx7IngiOjE3NjEuMTA5Mzc1LCJ5IjoyNzcuMjgxNDI5MjkwNzcxNX0seyJ4IjoxNzg2LjEwOTM3NSwieSI6Mjc3LjI4MTQyOTI5MDc3MTV9LHsieCI6MTgxMS4xMDkzNzUsInkiOjI3Ny4yODE0MjkyOTA3NzE1fSx7IngiOjE4NzIuMDA5MjgxMDcyMzg2NiwieSI6MjQ0LjI3NTEzNjk0NzYzMTg0fV0=" data-look="classic" marker-end="url(#my-svg_flowchart-v2-pointEnd)"/><path d="M248,1564.022L252.167,1565.906C256.333,1567.789,264.667,1571.556,273,1573.44C281.333,1575.323,289.667,1575.323,298,1575.323C306.333,1575.323,314.667,1575.323,344.667,1575.323C374.667,1575.323,426.333,1575.323,478,1575.323C529.667,1575.323,581.333,1575.323,631.229,1575.323C681.125,1575.323,729.25,1575.323,790.565,1575.323C851.88,1575.323,926.385,1575.323,1001.711,1575.323C1077.036,1575.323,1153.182,1575.323,1225.661,1575.323C1298.141,1575.323,1366.953,1575.323,1415.049,1575.323C1463.146,1575.323,1490.526,1575.323,1524.483,1575.323C1558.44,1575.323,1598.974,1575.323,1639.508,1575.323C1680.042,1575.323,1720.576,1575.323,1745.009,1575.323C1769.443,1575.323,1777.776,1575.323,1786.109,1575.323C1794.443,1575.323,1802.776,1575.323,1814.615,1579.904C1826.455,1584.484,1841.8,1593.645,1849.472,1598.225L1857.145,1602.806" id="my-svg-L_CH_CFGR_0" class="edge-thickness-normal edge-pattern-solid edge-thickness-normal edge-pattern-solid flowchart-link" style=";" data-edge="true" data-et="edge" data-id="L_CH_CFGR_0" data-points="W3sieCI6MjQ4LCJ5IjoxNTY0LjAyMjQyODQwNDYxfSx7IngiOjI3MywieSI6MTU3NS4zMjMwNjY3MTE0MjU4fSx7IngiOjI5OCwieSI6MTU3NS4zMjMwNjY3MTE0MjU4fSx7IngiOjMyMywieSI6MTU3NS4zMjMwNjY3MTE0MjU4fSx7IngiOjQ3OCwieSI6MTU3NS4zMjMwNjY3MTE0MjU4fSx7IngiOjYzMywieSI6MTU3NS4zMjMwNjY3MTE0MjU4fSx7IngiOjc3Ny4zNzUsInkiOjE1NzUuMzIzMDY2NzExNDI1OH0seyJ4IjoxMDAwLjg5MDYyNSwieSI6MTU3NS4zMjMwNjY3MTE0MjU4fSx7IngiOjEyMjkuMzI4MTI1LCJ5IjoxNTc1LjMyMzA2NjcxMTQyNTh9LHsieCI6MTQzNS43NjU2MjUsInkiOjE1NzUuMzIzMDY2NzExNDI1OH0seyJ4IjoxNTE3LjkwNjI1LCJ5IjoxNTc1LjMyMzA2NjcxMTQyNTh9LHsieCI6MTYzOS41MDc4MTI1LCJ5IjoxNTc1LjMyMzA2NjcxMTQyNTh9LHsieCI6MTc2MS4xMDkzNzUsInkiOjE1NzUuMzIzMDY2NzExNDI1OH0seyJ4IjoxNzg2LjEwOTM3NSwieSI6MTU3NS4zMjMwNjY3MTE0MjU4fSx7IngiOjE4MTEuMTA5Mzc1LCJ5IjoxNTc1LjMyMzA2NjcxMTQyNTh9LHsieCI6MTg2MC41Nzk1NTI3MzM5MDEyLCJ5IjoxNjA0Ljg1NjE1MTU4MDgxMDV9XQ==" data-look="classic" marker-end="url(#my-svg_flowchart-v2-pointEnd)"/><path d="M248,1732.222L252.167,1733.477C256.333,1734.731,264.667,1737.241,273,1738.495C281.333,1739.75,289.667,1739.75,298,1739.75C306.333,1739.75,314.667,1739.75,344.667,1739.75C374.667,1739.75,426.333,1739.75,478,1739.75C529.667,1739.75,581.333,1739.75,631.229,1739.75C681.125,1739.75,729.25,1739.75,790.565,1739.75C851.88,1739.75,926.385,1739.75,1001.711,1739.75C1077.036,1739.75,1153.182,1739.75,1225.661,1739.75C1298.141,1739.75,1366.953,1739.75,1415.049,1739.75C1463.146,1739.75,1490.526,1739.75,1524.483,1739.75C1558.44,1739.75,1598.974,1739.75,1639.508,1739.75C1680.042,1739.75,1720.576,1739.75,1745.009,1739.75C1769.443,1739.75,1777.776,1739.75,1786.109,1739.75C1794.443,1739.75,1802.776,1739.75,1810.505,1738.097C1818.233,1736.445,1825.357,1733.141,1828.919,1731.489L1832.481,1729.837" id="my-svg-L_RC_CFGR_0" class="edge-thickness-normal edge-pattern-solid edge-thickness-normal edge-pattern-solid flowchart-link" style=";" data-edge="true" data-et="edge" data-id="L_RC_CFGR_0" data-points="W3sieCI6MjQ4LCJ5IjoxNzMyLjIyMjQ4MTIwNTc3ODJ9LHsieCI6MjczLCJ5IjoxNzM5Ljc0OTUzNDYwNjkzMzZ9LHsieCI6Mjk4LCJ5IjoxNzM5Ljc0OTUzNDYwNjkzMzZ9LHsieCI6MzIzLCJ5IjoxNzM5Ljc0OTUzNDYwNjkzMzZ9LHsieCI6NDc4LCJ5IjoxNzM5Ljc0OTUzNDYwNjkzMzZ9LHsieCI6NjMzLCJ5IjoxNzM5Ljc0OTUzNDYwNjkzMzZ9LHsieCI6Nzc3LjM3NSwieSI6MTczOS43NDk1MzQ2MDY5MzM2fSx7IngiOjEwMDAuODkwNjI1LCJ5IjoxNzM5Ljc0OTUzNDYwNjkzMzZ9LHsieCI6MTIyOS4zMjgxMjUsInkiOjE3MzkuNzQ5NTM0NjA2OTMzNn0seyJ4IjoxNDM1Ljc2NTYyNSwieSI6MTczOS43NDk1MzQ2MDY5MzM2fSx7IngiOjE1MTcuOTA2MjUsInkiOjE3MzkuNzQ5NTM0NjA2OTMzNn0seyJ4IjoxNjM5LjUwNzgxMjUsInkiOjE3MzkuNzQ5NTM0NjA2OTMzNn0seyJ4IjoxNzYxLjEwOTM3NSwieSI6MTczOS43NDk1MzQ2MDY5MzM2fSx7IngiOjE3ODYuMTA5Mzc1LCJ5IjoxNzM5Ljc0OTUzNDYwNjkzMzZ9LHsieCI6MTgxMS4xMDkzNzUsInkiOjE3MzkuNzQ5NTM0NjA2OTMzNn0seyJ4IjoxODM2LjEwOTM3NSwieSI6MTcyOC4xNTM4Mjc2NjcyMzYzfV0=" data-look="classic" marker-end="url(#my-svg_flowchart-v2-pointEnd)"/></g><g class="edgeLabels"><g class="edgeLabel"><g class="label" data-id="L_NH_SRCR_0" transform="translate(0, 0)"><foreignObject width="0" height="0"><div xmlns="http://www.w3.org/1999/xhtml" class="labelBkg" style="display: table-cell; white-space: nowrap; line-height: 1.5; max-width: 200px; text-align: center;"><span class="edgeLabel"></span></div></foreignObject></g></g><g class="edgeLabel"><g class="label" data-id="L_TC_SRCR_0" transform="translate(0, 0)"><foreignObject width="0" height="0"><div xmlns="http://www.w3.org/1999/xhtml" class="labelBkg" style="display: table-cell; white-space: nowrap; line-height: 1.5; max-width: 200px; text-align: center;"><span class="edgeLabel"></span></div></foreignObject></g></g><g class="edgeLabel"><g class="label" data-id="L_AJ_SRCR_0" transform="translate(0, 0)"><foreignObject width="0" height="0"><div xmlns="http://www.w3.org/1999/xhtml" class="labelBkg" style="display: table-cell; white-space: nowrap; line-height: 1.5; max-width: 200px; text-align: center;"><span class="edgeLabel"></span></div></foreignObject></g></g><g class="edgeLabel"><g class="label" data-id="L_FR_SRCR_0" transform="translate(0, 0)"><foreignObject width="0" height="0"><div xmlns="http://www.w3.org/1999/xhtml" class="labelBkg" style="display: table-cell; white-space: nowrap; line-height: 1.5; max-width: 200px; text-align: center;"><span class="edgeLabel"></span></div></foreignObject></g></g><g class="edgeLabel"><g class="label" data-id="L_NC_SRCR_0" transform="translate(0, 0)"><foreignObject width="0" height="0"><div xmlns="http://www.w3.org/1999/xhtml" class="labelBkg" style="display: table-cell; white-space: nowrap; line-height: 1.5; max-width: 200px; text-align: center;"><span class="edgeLabel"></span></div></foreignObject></g></g><g class="edgeLabel"><g class="label" data-id="L_SRCR_EVAL_0" transform="translate(0, 0)"><foreignObject width="0" height="0"><div xmlns="http://www.w3.org/1999/xhtml" class="labelBkg" style="display: table-cell; white-space: nowrap; line-height: 1.5; max-width: 200px; text-align: center;"><span class="edgeLabel"></span></div></foreignObject></g></g><g class="edgeLabel"><g class="label" data-id="L_RULES_EVAL_0" transform="translate(0, 0)"><foreignObject width="0" height="0"><div xmlns="http://www.w3.org/1999/xhtml" class="labelBkg" style="display: table-cell; white-space: nowrap; line-height: 1.5; max-width: 200px; text-align: center;"><span class="edgeLabel"></span></div></foreignObject></g></g><g class="edgeLabel"><g class="label" data-id="L_RC_RULES_0" transform="translate(0, 0)"><foreignObject width="0" height="0"><div xmlns="http://www.w3.org/1999/xhtml" class="labelBkg" style="display: table-cell; white-space: nowrap; line-height: 1.5; max-width: 200px; text-align: center;"><span class="edgeLabel"></span></div></foreignObject></g></g><g class="edgeLabel" transform="translate(1229.328125, 573.1365203857422)"><g class="label" data-id="L_EVAL_AL_0" transform="translate(-81.390625, -12)"><foreignObject width="162.78125" height="24"><div xmlns="http://www.w3.org/1999/xhtml" class="labelBkg" style="display: table-cell; white-space: nowrap; line-height: 1.5; max-width: 200px; text-align: center;"><span class="edgeLabel"><p>open / update / resolve</p></span></div></foreignObject></g></g><g class="edgeLabel" transform="translate(942.98405, 1296.56368)"><g class="label" data-id="L_EVAL_DISP_0" transform="translate(-79.140625, -12)"><foreignObject width="158.28125" height="24"><div xmlns="http://www.w3.org/1999/xhtml" class="labelBkg" style="display: table-cell; white-space: nowrap; line-height: 1.5; max-width: 200px; text-align: center;"><span class="edgeLabel"><p>fire / resolve / re-notify</p></span></div></foreignObject></g></g><g class="edgeLabel" transform="translate(1229.328125, 948.729793548584)"><g class="label" data-id="L_EVAL_AU_0" transform="translate(-81.8125, -12)"><foreignObject width="163.625" height="24"><div xmlns="http://www.w3.org/1999/xhtml" class="labelBkg" style="display: table-cell; white-space: nowrap; line-height: 1.5; max-width: 200px; text-align: center;"><span class="edgeLabel"><p>critical → record_event</p></span></div></foreignObject></g></g><g class="edgeLabel"><g class="label" data-id="L_CH_DISP_0" transform="translate(0, 0)"><foreignObject width="0" height="0"><div xmlns="http://www.w3.org/1999/xhtml" class="labelBkg" style="display: table-cell; white-space: nowrap; line-height: 1.5; max-width: 200px; text-align: center;"><span class="edgeLabel"></span></div></foreignObject></g></g><g class="edgeLabel"><g class="label" data-id="L_DISP_EM_0" transform="translate(0, 0)"><foreignObject width="0" height="0"><div xmlns="http://www.w3.org/1999/xhtml" class="labelBkg" style="display: table-cell; white-space: nowrap; line-height: 1.5; max-width: 200px; text-align: center;"><span class="edgeLabel"></span></div></foreignObject></g></g><g class="edgeLabel"><g class="label" data-id="L_DISP_WH_0" transform="translate(0, 0)"><foreignObject width="0" height="0"><div xmlns="http://www.w3.org/1999/xhtml" class="labelBkg" style="display: table-cell; white-space: nowrap; line-height: 1.5; max-width: 200px; text-align: center;"><span class="edgeLabel"></span></div></foreignObject></g></g><g class="edgeLabel" transform="translate(1435.765625, 605.1365203857422)"><g class="label" data-id="L_DISP_AN_0" transform="translate(-57.140625, -12)"><foreignObject width="114.28125" height="24"><div xmlns="http://www.w3.org/1999/xhtml" class="labelBkg" style="display: table-cell; white-space: nowrap; line-height: 1.5; max-width: 200px; text-align: center;"><span class="edgeLabel"><p>attempt + status</p></span></div></foreignObject></g></g><g class="edgeLabel"><g class="label" data-id="L_AL_GA_0" transform="translate(0, 0)"><foreignObject width="0" height="0"><div xmlns="http://www.w3.org/1999/xhtml" class="labelBkg" style="display: table-cell; white-space: nowrap; line-height: 1.5; max-width: 200px; text-align: center;"><span class="edgeLabel"></span></div></foreignObject></g></g><g class="edgeLabel"><g class="label" data-id="L_AN_GA_0" transform="translate(0, 0)"><foreignObject width="0" height="0"><div xmlns="http://www.w3.org/1999/xhtml" class="labelBkg" style="display: table-cell; white-space: nowrap; line-height: 1.5; max-width: 200px; text-align: center;"><span class="edgeLabel"></span></div></foreignObject></g></g><g class="edgeLabel"><g class="label" data-id="L_CH_CFGR_0" transform="translate(0, 0)"><foreignObject width="0" height="0"><div xmlns="http://www.w3.org/1999/xhtml" class="labelBkg" style="display: table-cell; white-space: nowrap; line-height: 1.5; max-width: 200px; text-align: center;"><span class="edgeLabel"></span></div></foreignObject></g></g><g class="edgeLabel"><g class="label" data-id="L_RC_CFGR_0" transform="translate(0, 0)"><foreignObject width="0" height="0"><div xmlns="http://www.w3.org/1999/xhtml" class="labelBkg" style="display: table-cell; white-space: nowrap; line-height: 1.5; max-width: 200px; text-align: center;"><span class="edgeLabel"></span></div></foreignObject></g></g></g><g class="nodes"><g class="node default" id="my-svg-flowchart-NH-0" data-look="classic" transform="translate(140.5, 581.1365203857422)"><path d="M0,15.808823529411764 a107.5,15.808823529411764 0,0,0 215,0 a107.5,15.808823529411764 0,0,0 -215,0 l0,126.80882352941177 a107.5,15.808823529411764 0,0,0 215,0 l0,-126.80882352941177" class="basic label-container outer-path" style="" transform="translate(-107.5, -79.21323529411765)"/><g class="label" style="" transform="translate(-100, -38)"><rect/><foreignObject width="200" height="96"><div xmlns="http://www.w3.org/1999/xhtml" style="display: table; white-space: break-spaces; line-height: 1.5; max-width: 200px; text-align: center; width: 200px;"><span class="nodeLabel"><p>NodeHealthSnapshot<br />xdp_mode · map_error<br />clean/capacity · bloom_stats</p></span></div></foreignObject></g></g><g class="node default" id="my-svg-flowchart-TC-1" data-look="classic" transform="translate(140.5, 764.2219314575195)"><path d="M0,14.9147798900711 a92.4296875,14.9147798900711 0,0,0 184.859375,0 a92.4296875,14.9147798900711 0,0,0 -184.859375,0 l0,77.9147798900711 a92.4296875,14.9147798900711 0,0,0 184.859375,0 l0,-77.9147798900711" class="basic label-container outer-path" style="" transform="translate(-92.4296875, -53.872169835106654)"/><g class="label" style="" transform="translate(-84.9296875, -14)"><rect/><foreignObject width="169.859375" height="48"><div xmlns="http://www.w3.org/1999/xhtml" style="display: table-cell; white-space: nowrap; line-height: 1.5; max-width: 200px; text-align: center;"><span class="nodeLabel"><p>TelemetryCounter<br />service drop/clean · bps</p></span></div></foreignObject></g></g><g class="node default" id="my-svg-flowchart-AJ-2" data-look="classic" transform="translate(140.5, 922.349910736084)"><path d="M0,15.1705411117118 a96.4609375,15.1705411117118 0,0,0 192.921875,0 a96.4609375,15.1705411117118 0,0,0 -192.921875,0 l0,78.1705411117118 a96.4609375,15.1705411117118 0,0,0 192.921875,0 l0,-78.1705411117118" class="basic label-container outer-path" style="" transform="translate(-96.4609375, -54.2558116675677)"/><g class="label" style="" transform="translate(-88.9609375, -14)"><rect/><foreignObject width="177.921875" height="48"><div xmlns="http://www.w3.org/1999/xhtml" style="display: table-cell; white-space: nowrap; line-height: 1.5; max-width: 200px; text-align: center;"><span class="nodeLabel"><p>AgentJob<br />queued / applying / failed</p></span></div></foreignObject></g></g><g class="node default" id="my-svg-flowchart-FR-3" data-look="classic" transform="translate(140.5, 1081.8189582824707)"><path d="M0,15.808823529411764 a107.5,15.808823529411764 0,0,0 215,0 a107.5,15.808823529411764 0,0,0 -215,0 l0,78.80882352941177 a107.5,15.808823529411764 0,0,0 215,0 l0,-78.80882352941177" class="basic label-container outer-path" style="" transform="translate(-107.5, -55.21323529411765)"/><g class="label" style="" transform="translate(-100, -14)"><rect/><foreignObject width="200" height="48"><div xmlns="http://www.w3.org/1999/xhtml" style="display: table; white-space: break-spaces; line-height: 1.5; max-width: 200px; text-align: center; width: 200px;"><span class="nodeLabel"><p>FeedSyncRun + FeedSyncOverlap</p></span></div></foreignObject></g></g><g class="node default" id="my-svg-flowchart-NC-4" data-look="classic" transform="translate(140.5, 1240.1776313781738)"><path d="M0,14.43029278088997 a85.328125,14.43029278088997 0,0,0 170.65625,0 a85.328125,14.43029278088997 0,0,0 -170.65625,0 l0,77.43029278088997 a85.328125,14.43029278088997 0,0,0 170.65625,0 l0,-77.43029278088997" class="basic label-container outer-path" style="" transform="translate(-85.328125, -53.14543917133496)"/><g class="label" style="" transform="translate(-77.828125, -14)"><rect/><foreignObject width="155.65625" height="48"><div xmlns="http://www.w3.org/1999/xhtml" style="display: table-cell; white-space: nowrap; line-height: 1.5; max-width: 200px; text-align: center;"><span class="nodeLabel"><p>NodeControl<br />bypass / maintenance</p></span></div></foreignObject></g></g><g class="node default" id="my-svg-flowchart-SRCR-5" data-look="classic" transform="translate(478, 920.3703880310059)"><rect class="basic label-container" style="" x="-112.71875" y="-39" width="225.4375" height="78"/><g class="label" style="" transform="translate(-82.71875, -24)"><rect/><foreignObject width="165.4375" height="48"><div xmlns="http://www.w3.org/1999/xhtml" style="display: table-cell; white-space: nowrap; line-height: 1.5; max-width: 200px; text-align: center;"><span class="nodeLabel"><p>AlertSources.load()<br />→ AlertInputs snapshot</p></span></div></foreignObject></g></g><g class="node default" id="my-svg-flowchart-RULES-6" data-look="classic" transform="translate(478, 1416.3230667114258)"><rect class="basic label-container" style="" x="-130" y="-51" width="260" height="102"/><g class="label" style="" transform="translate(-100, -36)"><rect/><foreignObject width="200" height="72"><div xmlns="http://www.w3.org/1999/xhtml" style="display: table; white-space: break-spaces; line-height: 1.5; max-width: 200px; text-align: center; width: 200px;"><span class="nodeLabel"><p>alert_rules catalog<br />pure predicates + §9.1 defaults</p></span></div></foreignObject></g></g><g class="node default" id="my-svg-flowchart-EVAL-7" data-look="classic" transform="translate(777.375, 1091.3364887237549)"><rect class="basic label-container" style="" x="-119.375" y="-51" width="238.75" height="102"/><g class="label" style="" transform="translate(-89.375, -36)"><rect/><foreignObject width="178.75" height="72"><div xmlns="http://www.w3.org/1999/xhtml" style="display: table-cell; white-space: nowrap; line-height: 1.5; max-width: 200px; text-align: center;"><span class="nodeLabel"><p>AlertEvaluator.reconcile()<br />debounce · hysteresis<br />dedup · auto-resolve</p></span></div></foreignObject></g></g><g class="node default" id="my-svg-flowchart-DISP-8" data-look="classic" transform="translate(1229.328125, 1411.3230667114258)"><rect class="basic label-container" style="" x="-124.296875" y="-51" width="248.59375" height="102"/><g class="label" style="" transform="translate(-94.296875, -36)"><rect/><foreignObject width="188.59375" height="72"><div xmlns="http://www.w3.org/1999/xhtml" style="display: table-cell; white-space: nowrap; line-height: 1.5; max-width: 200px; text-align: center;"><span class="nodeLabel"><p>NotificationDispatcher<br />route by channel.tenant_id<br />+ min_severity</p></span></div></foreignObject></g></g><g class="node default" id="my-svg-flowchart-EM-9" data-look="classic" transform="translate(1639.5078125, 1353.3230667114258)"><rect class="basic label-container" style="" x="-95.8125" y="-39" width="191.625" height="78"/><g class="label" style="" transform="translate(-65.8125, -24)"><rect/><foreignObject width="131.625" height="48"><div xmlns="http://www.w3.org/1999/xhtml" style="display: table-cell; white-space: nowrap; line-height: 1.5; max-width: 200px; text-align: center;"><span class="nodeLabel"><p>EmailChannel<br />smtplib / to_thread</p></span></div></foreignObject></g></g><g class="node default" id="my-svg-flowchart-WH-10" data-look="classic" transform="translate(1639.5078125, 1481.3230667114258)"><rect class="basic label-container" style="" x="-93.453125" y="-39" width="186.90625" height="78"/><g class="label" style="" transform="translate(-63.453125, -24)"><rect/><foreignObject width="126.90625" height="48"><div xmlns="http://www.w3.org/1999/xhtml" style="display: table-cell; white-space: nowrap; line-height: 1.5; max-width: 200px; text-align: center;"><span class="nodeLabel"><p>WebhookChannel<br />httpx</p></span></div></foreignObject></g></g><g class="node default" id="my-svg-flowchart-AL-11" data-look="classic" transform="translate(1639.5078125, 109.26884460449219)"><path d="M0,15.179229069481954 a96.6015625,15.179229069481954 0,0,0 193.203125,0 a96.6015625,15.179229069481954 0,0,0 -193.203125,0 l0,102.17922906948195 a96.6015625,15.179229069481954 0,0,0 193.203125,0 l0,-102.17922906948195" class="basic label-container outer-path" style="" transform="translate(-96.6015625, -66.26884360422292)"/><g class="label" style="" transform="translate(-89.1015625, -26)"><rect/><foreignObject width="178.203125" height="72"><div xmlns="http://www.w3.org/1999/xhtml" style="display: table-cell; white-space: nowrap; line-height: 1.5; max-width: 200px; text-align: center;"><span class="nodeLabel"><p>alert<br />pending | firing | resolved<br />fire_streak · clear_streak</p></span></div></foreignObject></g></g><g class="node default" id="my-svg-flowchart-AN-12" data-look="classic" transform="translate(1639.5078125, 277.2814292907715)"><path d="M0,13.495829738280127 a73.3203125,13.495829738280127 0,0,0 146.640625,0 a73.3203125,13.495829738280127 0,0,0 -146.640625,0 l0,76.49582973828012 a73.3203125,13.495829738280127 0,0,0 146.640625,0 l0,-76.49582973828012" class="basic label-container outer-path" style="" transform="translate(-73.3203125, -51.74374460742019)"/><g class="label" style="" transform="translate(-65.8203125, -14)"><rect/><foreignObject width="131.640625" height="48"><div xmlns="http://www.w3.org/1999/xhtml" style="display: table-cell; white-space: nowrap; line-height: 1.5; max-width: 200px; text-align: center;"><span class="nodeLabel"><p>alert_notification<br />per-channel status</p></span></div></foreignObject></g></g><g class="node default" id="my-svg-flowchart-AU-13" data-look="classic" transform="translate(1639.5078125, 432.5808448791504)"><path d="M0,14.707168956821574 a89.3046875,14.707168956821574 0,0,0 178.609375,0 a89.3046875,14.707168956821574 0,0,0 -178.609375,0 l0,77.70716895682158 a89.3046875,14.707168956821574 0,0,0 178.609375,0 l0,-77.70716895682158" class="basic label-container outer-path" style="" transform="translate(-89.3046875, -53.560753435232364)"/><g class="label" style="" transform="translate(-81.8046875, -14)"><rect/><foreignObject width="163.609375" height="48"><div xmlns="http://www.w3.org/1999/xhtml" style="display: table-cell; white-space: nowrap; line-height: 1.5; max-width: 200px; text-align: center;"><span class="nodeLabel"><p>audit_events<br />(reused — critical only)</p></span></div></foreignObject></g></g><g class="node default" id="my-svg-flowchart-CH-14" data-look="classic" transform="translate(140.5, 1515.4296836853027)"><path d="M0,15.808823529411764 a107.5,15.808823529411764 0,0,0 215,0 a107.5,15.808823529411764 0,0,0 -215,0 l0,102.80882352941177 a107.5,15.808823529411764 0,0,0 215,0 l0,-102.80882352941177" class="basic label-container outer-path" style="" transform="translate(-107.5, -67.21323529411765)"/><g class="label" style="" transform="translate(-100, -26)"><rect/><foreignObject width="200" height="72"><div xmlns="http://www.w3.org/1999/xhtml" style="display: table; white-space: break-spaces; line-height: 1.5; max-width: 200px; text-align: center; width: 200px;"><span class="nodeLabel"><p>notification_channel<br />kind · tenant_id · min_severity · secret</p></span></div></foreignObject></g></g><g class="node default" id="my-svg-flowchart-RC-15" data-look="classic" transform="translate(140.5, 1699.8561515808105)"><path d="M0,15.808823529411764 a107.5,15.808823529411764 0,0,0 215,0 a107.5,15.808823529411764 0,0,0 -215,0 l0,102.80882352941177 a107.5,15.808823529411764 0,0,0 215,0 l0,-102.80882352941177" class="basic label-container outer-path" style="" transform="translate(-107.5, -67.21323529411765)"/><g class="label" style="" transform="translate(-100, -26)"><rect/><foreignObject width="200" height="72"><div xmlns="http://www.w3.org/1999/xhtml" style="display: table; white-space: break-spaces; line-height: 1.5; max-width: 200px; text-align: center; width: 200px;"><span class="nodeLabel"><p>alert_rule<br />enabled · threshold · severity override</p></span></div></foreignObject></g></g><g class="node default" id="my-svg-flowchart-GA-46" data-look="classic" transform="translate(1966.109375, 193.27513694763184)"><rect class="basic label-container" style="" x="-130" y="-51" width="260" height="102"/><g class="label" style="" transform="translate(-100, -36)"><rect/><foreignObject width="200" height="72"><div xmlns="http://www.w3.org/1999/xhtml" style="display: table; white-space: break-spaces; line-height: 1.5; max-width: 200px; text-align: center; width: 200px;"><span class="nodeLabel"><p>GET /alerts<br />admin all · tenant own-service (404 cross-tenant)</p></span></div></foreignObject></g></g><g class="node default" id="my-svg-flowchart-CFGR-47" data-look="classic" transform="translate(1966.109375, 1667.8561515808105)"><rect class="basic label-container" style="" x="-130" y="-63" width="260" height="126"/><g class="label" style="" transform="translate(-100, -48)"><rect/><foreignObject width="200" height="96"><div xmlns="http://www.w3.org/1999/xhtml" style="display: table; white-space: break-spaces; line-height: 1.5; max-width: 200px; text-align: center; width: 200px;"><span class="nodeLabel"><p>/alerts/rules · /alerts/channels<br />(require_admin · secret write-only)</p></span></div></foreignObject></g></g><g class="node default" id="my-svg-flowchart-TEST-48" data-look="classic" transform="translate(1966.109375, 1819.8561515808105)"><rect class="basic label-container" style="" x="-130" y="-39" width="260" height="78"/><g class="label" style="" transform="translate(-100, -24)"><rect/><foreignObject width="200" height="48"><div xmlns="http://www.w3.org/1999/xhtml" style="display: table; white-space: break-spaces; line-height: 1.5; max-width: 200px; text-align: center; width: 200px;"><span class="nodeLabel"><p>POST /alerts/channels/{id}/test</p></span></div></foreignObject></g></g></g></g></g><defs><filter id="my-svg-drop-shadow" height="130%" width="130%"><feDropShadow dx="4" dy="4" stdDeviation="0" flood-opacity="0.06" flood-color="#000000"/></filter></defs><defs><filter id="my-svg-drop-shadow-small" height="150%" width="150%"><feDropShadow dx="2" dy="2" stdDeviation="0" flood-opacity="0.06" flood-color="#000000"/></filter></defs><linearGradient id="my-svg-gradient" gradientUnits="objectBoundingBox" x1="0%" y1="0%" x2="100%" y2="0%"><stop offset="0%" stop-color="#3730a3" stop-opacity="1"/><stop offset="100%" stop-color="hsl(160.1183431953, 44.07960199%, 29.4117647059%)" stop-opacity="1"/></linearGradient></svg>